<svg width="800" height="600" viewBox="0 0 800 600" fill="none" xmlns="http://www.w3.org/2000/svg">
  <!-- Africa Continent Base -->
  <path d="M300 100C250 120 200 200 200 300C200 400 250 450 300 500C350 550 450 550 500 500C550 450 600 400 600 300C600 200 550 150 500 100C450 50 350 80 300 100Z" fill="#22C55E" fill-opacity="0.1"/>
  
  <!-- Lake Chad Region Highlight -->
  <circle cx="400" cy="250" r="80" fill="#22C55E" fill-opacity="0.2"/>
  <circle cx="400" cy="250" r="60" fill="#16A34A" fill-opacity="0.3"/>
  <circle cx="400" cy="250" r="40" fill="#15803D" fill-opacity="0.4"/>
  
  <!-- Connection Lines -->
  <path d="M400 250L350 200M400 250L450 200M400 250L350 300M400 250L450 300" stroke="#22C55E" stroke-width="2"/>
  
  <!-- Location Markers -->
  <circle cx="350" cy="200" r="8" fill="#22C55E"/>
  <circle cx="450" cy="200" r="8" fill="#22C55E"/>
  <circle cx="350" cy="300" r="8" fill="#22C55E"/>
  <circle cx="450" cy="300" r="8" fill="#22C55E"/>
  
  <!-- Pulse Animation -->
  <circle cx="400" cy="250" r="20" stroke="#22C55E" stroke-width="2" fill="none">
    <animate attributeName="r" from="20" to="40" dur="2s" repeatCount="indefinite"/>
    <animate attributeName="opacity" from="1" to="0" dur="2s" repeatCount="indefinite"/>
  </circle>
</svg> 