<?xml version="1.0" encoding="UTF-8"?>
<svg width="400" height="400" viewBox="0 0 400 400" fill="none" xmlns="http://www.w3.org/2000/svg">
  <!-- Background Circle -->
  <circle cx="200" cy="200" r="180" fill="#E5F5E5" opacity="0.5"/>
  
  <!-- Professional Figure -->
  <path d="M160 140 Q200 120 240 140 Q280 160 280 200 Q280 240 240 260 Q200 280 160 260 Q120 240 120 200 Q120 160 160 140Z" fill="#4CAF50" opacity="0.2"/>
  
  <!-- Head -->
  <circle cx="200" cy="160" r="40" fill="#2E7D32"/>
  
  <!-- Hair -->
  <path d="M160 160 Q200 100 240 160 Q220 140 200 140 Q180 140 160 160Z" fill="#1B5E20"/>
  <path d="M160 160 Q180 180 200 180 Q220 180 240 160" fill="#1B5E20"/>
  
  <!-- Professional Attire -->
  <path d="M160 200 L240 200 L260 380 L140 380 Z" fill="#81C784"/>
  <path d="M160 200 L240 200 L260 380 L140 380 Z" stroke="#2E7D32" stroke-width="2"/>
  
  <!-- Research Elements -->
  <!-- Clipboard -->
  <rect x="160" y="240" width="60" height="80" fill="#E8F5E9" stroke="#2E7D32" stroke-width="2"/>
  <path d="M170 260 L210 260 M170 280 L200 280 M170 300 L205 300" stroke="#2E7D32" stroke-width="2"/>
  
  <!-- Gender Justice Symbol -->
  <circle cx="240" cy="280" r="20" stroke="#4CAF50" stroke-width="2" fill="none"/>
  <path d="M240 300 L240 320" stroke="#4CAF50" stroke-width="2"/>
  <path d="M230 310 L250 310" stroke="#4CAF50" stroke-width="2"/>
  
  <!-- Decorative Elements -->
  <circle cx="140" cy="120" r="5" fill="#4CAF50" opacity="0.5"/>
  <circle cx="260" cy="120" r="5" fill="#4CAF50" opacity="0.5"/>
  <circle cx="140" cy="340" r="5" fill="#4CAF50" opacity="0.5"/>
  <circle cx="260" cy="340" r="5" fill="#4CAF50" opacity="0.5"/>
  
  <!-- Necklace -->
  <path d="M180 200 Q200 220 220 200" stroke="#2E7D32" stroke-width="2"/>
  <circle cx="200" cy="210" r="3" fill="#2E7D32"/>
  
  <!-- Glasses -->
  <path d="M180 160 L220 160" stroke="#1B5E20" stroke-width="2"/>
  <circle cx="190" cy="160" r="12" stroke="#1B5E20" stroke-width="2" fill="none"/>
  <circle cx="210" cy="160" r="12" stroke="#1B5E20" stroke-width="2" fill="none"/>
</svg> 