<?xml version="1.0" encoding="UTF-8"?>
<svg width="400" height="400" viewBox="0 0 400 400" fill="none" xmlns="http://www.w3.org/2000/svg">
  <!-- Background Circle -->
  <circle cx="200" cy="200" r="180" fill="#E5F5E5" opacity="0.5"/>
  
  <!-- Professional Figure -->
  <path d="M160 140 Q200 120 240 140 Q280 160 280 200 Q280 240 240 260 Q200 280 160 260 Q120 240 120 200 Q120 160 160 140Z" fill="#4CAF50" opacity="0.2"/>
  
  <!-- Head -->
  <circle cx="200" cy="160" r="40" fill="#2E7D32"/>
  
  <!-- Hair -->
  <path d="M170 130 Q200 120 230 130 L230 160 L170 160 Z" fill="#1B5E20"/>
  
  <!-- Professional Attire -->
  <path d="M160 200 L240 200 L260 380 L140 380 Z" fill="#81C784"/>
  <path d="M160 200 L240 200 L260 380 L140 380 Z" stroke="#2E7D32" stroke-width="2"/>
  
  <!-- Community Elements -->
  <!-- People Icons -->
  <circle cx="180" cy="260" r="15" fill="#4CAF50"/>
  <circle cx="220" cy="260" r="15" fill="#4CAF50"/>
  <circle cx="200" cy="290" r="15" fill="#4CAF50"/>
  
  <!-- Connecting Lines -->
  <path d="M180 260 L220 260 M200 290 L180 260 M200 290 L220 260" stroke="#2E7D32" stroke-width="2"/>
  
  <!-- Resilience Symbol -->
  <circle cx="200" cy="340" r="25" stroke="#2E7D32" stroke-width="2" fill="none"/>
  <path d="M180 340 Q200 320 220 340 Q200 360 180 340" stroke="#2E7D32" stroke-width="2" fill="none"/>
  
  <!-- Decorative Elements -->
  <circle cx="140" cy="120" r="5" fill="#4CAF50" opacity="0.5"/>
  <circle cx="260" cy="120" r="5" fill="#4CAF50" opacity="0.5"/>
  <circle cx="140" cy="340" r="5" fill="#4CAF50" opacity="0.5"/>
  <circle cx="260" cy="340" r="5" fill="#4CAF50" opacity="0.5"/>
  
  <!-- Tie -->
  <path d="M190 200 L210 200 L205 240 L195 240 Z" fill="#2E7D32"/>
  
  <!-- Glasses -->
  <path d="M180 160 L220 160" stroke="#1B5E20" stroke-width="2"/>
  <circle cx="190" cy="160" r="12" stroke="#1B5E20" stroke-width="2" fill="none"/>
  <circle cx="210" cy="160" r="12" stroke="#1B5E20" stroke-width="2" fill="none"/>
</svg> 