<?xml version="1.0" encoding="UTF-8"?>
<svg width="400" height="400" viewBox="0 0 400 400" fill="none" xmlns="http://www.w3.org/2000/svg">
  <!-- Background Circle -->
  <circle cx="200" cy="200" r="180" fill="#E5F5E5" opacity="0.5"/>
  
  <!-- Professional Figure -->
  <path d="M160 140 Q200 120 240 140 Q280 160 280 200 Q280 240 240 260 Q200 280 160 260 Q120 240 120 200 Q120 160 160 140Z" fill="#4CAF50" opacity="0.2"/>
  
  <!-- Head -->
  <circle cx="200" cy="160" r="40" fill="#2E7D32"/>
  
  <!-- Glasses -->
  <path d="M170 160 L230 160" stroke="#1B5E20" stroke-width="2"/>
  <circle cx="180" cy="160" r="15" stroke="#1B5E20" stroke-width="2" fill="none"/>
  <circle cx="220" cy="160" r="15" stroke="#1B5E20" stroke-width="2" fill="none"/>
  
  <!-- Lab Coat -->
  <path d="M160 200 L240 200 L260 380 L140 380 Z" fill="#FFFFFF" opacity="0.9"/>
  <path d="M160 200 L240 200 L260 380 L140 380 Z" stroke="#4CAF50" stroke-width="2"/>
  
  <!-- Scientific Elements -->
  <!-- Molecule Structure -->
  <circle cx="140" cy="280" r="10" fill="#81C784"/>
  <circle cx="180" cy="260" r="10" fill="#81C784"/>
  <circle cx="220" cy="280" r="10" fill="#81C784"/>
  <path d="M140 280 L180 260 L220 280" stroke="#2E7D32" stroke-width="2"/>
  
  <!-- Research Paper -->
  <rect x="160" y="300" width="80" height="60" fill="#E8F5E9"/>
  <path d="M170 310 L230 310 M170 320 L210 320 M170 330 L220 330" stroke="#2E7D32" stroke-width="2"/>
  
  <!-- Decorative Elements -->
  <circle cx="140" cy="120" r="5" fill="#4CAF50" opacity="0.5"/>
  <circle cx="260" cy="120" r="5" fill="#4CAF50" opacity="0.5"/>
  <circle cx="140" cy="340" r="5" fill="#4CAF50" opacity="0.5"/>
  <circle cx="260" cy="340" r="5" fill="#4CAF50" opacity="0.5"/>
  
  <!-- Pocket -->
  <path d="M180 240 L220 240 L220 280 L180 280 Z" stroke="#4CAF50" stroke-width="2" fill="none"/>
  
  <!-- Pen -->
  <line x1="190" y1="245" x2="190" y2="275" stroke="#2E7D32" stroke-width="2"/>
</svg> 