<?xml version="1.0" encoding="UTF-8"?>
<svg width="400" height="400" viewBox="0 0 400 400" fill="none" xmlns="http://www.w3.org/2000/svg">
  <!-- Background Circle -->
  <circle cx="200" cy="200" r="180" fill="#E5F5E5" opacity="0.5"/>
  
  <!-- Professional Figure -->
  <path d="M160 140 Q200 120 240 140 Q280 160 280 200 Q280 240 240 260 Q200 280 160 260 Q120 240 120 200 Q120 160 160 140Z" fill="#4CAF50" opacity="0.2"/>
  
  <!-- Head -->
  <circle cx="200" cy="160" r="40" fill="#2E7D32"/>
  
  <!-- Hair -->
  <path d="M160 160 Q200 120 240 160 Q220 140 200 140 Q180 140 160 160Z" fill="#1B5E20"/>
  
  <!-- Body -->
  <path d="M160 200 L240 200 L260 360 L140 360 Z" fill="#4CAF50"/>
  
  <!-- Academic Robe -->
  <path d="M140 220 L260 220 L280 380 L120 380 Z" fill="#1B5E20" opacity="0.8"/>
  
  <!-- Graduation Cap -->
  <path d="M160 140 L240 140 L200 100 Z" fill="#2E7D32"/>
  <rect x="190" y="90" width="20" height="20" fill="#2E7D32"/>
  
  <!-- Tassel -->
  <path d="M210 110 Q220 120 220 140" stroke="#4CAF50" stroke-width="2"/>
  
  <!-- Book -->
  <rect x="160" y="240" width="80" height="100" fill="#81C784"/>
  <path d="M160 240 L240 240 L240 340 L160 340 Z" stroke="#2E7D32" stroke-width="2"/>
  
  <!-- Decorative Elements -->
  <circle cx="140" cy="120" r="5" fill="#4CAF50" opacity="0.5"/>
  <circle cx="260" cy="120" r="5" fill="#4CAF50" opacity="0.5"/>
  <circle cx="140" cy="280" r="5" fill="#4CAF50" opacity="0.5"/>
  <circle cx="260" cy="280" r="5" fill="#4CAF50" opacity="0.5"/>
</svg> 