<svg width="800" height="600" viewBox="0 0 800 600" fill="none" xmlns="http://www.w3.org/2000/svg">
  <path d="M400 100C250 100 150 300 150 400C150 500 250 550 400 550C550 550 650 500 650 400C650 300 550 100 400 100Z" fill="#60A5FA" fill-opacity="0.2"/>
  <path d="M400 150C280 150 200 320 200 400C200 480 280 520 400 520C520 520 600 480 600 400C600 320 520 150 400 150Z" fill="#3B82F6" fill-opacity="0.4"/>
  <path d="M400 200C310 200 250 340 250 400C250 460 310 490 400 490C490 490 550 460 550 400C550 340 490 200 400 200Z" fill="#2563EB"/>
  <path d="M350 300C350 300 380 340 400 340C420 340 450 300 450 300C450 300 420 280 400 280C380 280 350 300 350 300Z" fill="white"/>
</svg> 