<svg width="800" height="600" viewBox="0 0 800 600" fill="none" xmlns="http://www.w3.org/2000/svg">
  <circle cx="400" cy="200" r="100" fill="#EC4899" fill-opacity="0.2"/>
  <path d="M350 180C350 180 380 220 400 220C420 220 450 180 450 180C450 180 420 160 400 160C380 160 350 180 350 180Z" fill="#EC4899"/>
  <path d="M300 400C300 300 350 250 400 250C450 250 500 300 500 400L450 420C450 340 420 300 400 300C380 300 350 340 350 420L300 400Z" fill="#EC4899"/>
  <path d="M320 450L300 400L350 420L400 430L450 420L500 400L480 450H320Z" fill="#EC4899"/>
  <circle cx="400" cy="180" r="30" fill="#DB2777"/>
</svg> 